<svg id="Layer_1" data-name="Layer 1" xmlns="http://www.w3.org/2000/svg" viewBox="0 0 142 134"><title>logo</title><g id="logo"><g id="iconmonstr-video-16"><path id="Shape" d="M53.25,94.83v-56L106.5,67.68ZM76.92,11.19c29.86,2.81,53.25,26.7,53.25,55.67a53,53,0,0,1-5.28,23l10.28,5.62A63.77,63.77,0,0,0,142,66.86c0-35.19-28.65-64-65.08-66.86V11.19ZM17.11,89.82a53,53,0,0,1-5.27-23c0-29,23.39-52.85,53.25-55.67V0C28.65,2.85,0,31.67,0,66.86A63.76,63.76,0,0,0,6.82,95.44l10.28-5.62ZM118.95,99.5A60.17,60.17,0,0,1,71,122.81,60.15,60.15,0,0,1,23,99.5l-10.33,5.64C25.54,122.57,46.84,134,71,134s45.46-11.43,58.29-28.85L118.95,99.5Z"/></g></g></svg>