<?xml version="1.0" encoding="utf-8"?>
<!-- Generator: Adobe Illustrator 21.0.1, SVG Export Plug-In . SVG Version: 6.00 Build 0)  -->
<svg version="1.1" id="Layer_1" xmlns="http://www.w3.org/2000/svg" xmlns:xlink="http://www.w3.org/1999/xlink" x="0px" y="0px"
	 viewBox="0 0 1599 320" style="enable-background:new 0 0 1599 320;" xml:space="preserve">
<style type="text/css">
	.st0{fill:#603D1E;}
	.st1{font-family:'AvenirNext-Regular';}
	.st2{font-size:255px;}
	.st3{font-size:70px;}
</style>
<desc>Created with Sketch.</desc>
<g id="Group" transform="translate(-722.000000, -502.000000)">
	<g id="logo" transform="translate(1004.000000, 0.000000)">
		<g id="iconmonstr-video-16">
			<path id="Shape" d="M788.1,625.5v-56l53.2,28.8L788.1,625.5z M811.8,541.8c29.9,2.8,53.2,26.7,53.2,55.7c0,8.2-1.9,15.9-5.3,23
				l10.3,5.6c4.3-8.7,6.8-18.3,6.8-28.6c0-35.2-28.6-64-65.1-66.9V541.8L811.8,541.8z M752,620.5c-3.4-7-5.3-14.8-5.3-23
				c0-29,23.4-52.9,53.2-55.7v-11.2c-36.4,2.9-65.1,31.7-65.1,66.9c0,10.2,2.5,19.9,6.8,28.6L752,620.5L752,620.5z M853.8,630.1
				c-10.8,14.1-28.2,23.3-47.9,23.3s-37.2-9.2-48-23.3l-10.3,5.6c12.8,17.4,34.1,28.9,58.3,28.9c24.2,0,45.5-11.4,58.3-28.9
				L853.8,630.1L853.8,630.1z"/>
		</g>
	</g>
	<text transform="matrix(1 0 0 1 731.6771 661.9999)" class="st0 st1 st2">augcast</text>
</g>
<text transform="matrix(1 0 0 1 482 273.3304)" class="st0 st1 st3">an augmented podcast experience</text>
</svg>
